<svg xmlns="http://www.w3.org/2000/svg" viewBox="0 0 131.04 169.05"><defs><style>.cls-1{fill:#22b7a6;}.cls-2{fill:#1db7a8;}</style></defs><title>logo final 2</title><g id="Camada_2" data-name="Camada 2"><g id="Camada_1-2" data-name="Camada 1"><path class="cls-1" d="M36,148.8a8.44,8.44,0,0,1-.53,3A9.28,9.28,0,0,1,34,154.42,9.2,9.2,0,0,1,35.46,157a8.72,8.72,0,0,1,.55,3l0,8.93-6.9,0,0-8.92a2.16,2.16,0,0,0-.68-1.6,2.26,2.26,0,0,0-1.65-.64l-7,0L19.89,169l-6.91,0L12.84,140l6.91,0,7,0a9,9,0,0,1,3.6.69,9.34,9.34,0,0,1,2.93,1.89,9.09,9.09,0,0,1,2,2.82A8.46,8.46,0,0,1,36,148.8Zm-9.21,2.29a2.29,2.29,0,0,0,1.65-.65,2.13,2.13,0,0,0,.65-1.61,2.07,2.07,0,0,0-.67-1.55,2.28,2.28,0,0,0-1.65-.64l-6.95,0,0,4.44Z"/><path class="cls-1" d="M45.23,147.2a2.06,2.06,0,0,0-.65,1.56V151l16.16-.07,0,6.72-16.16.08V160a2.13,2.13,0,0,0,.67,1.58,2.22,2.22,0,0,0,1.65.65l13.85-.06,0,6.68L47,168.89a9,9,0,0,1-3.61-.69,9.38,9.38,0,0,1-2.92-1.9,8.92,8.92,0,0,1-2-2.81,8.5,8.5,0,0,1-.75-3.49l0-11.21a8.35,8.35,0,0,1,.71-3.49,9.2,9.2,0,0,1,2-2.83,9.54,9.54,0,0,1,2.91-1.93,9.33,9.33,0,0,1,3.6-.72l13.85-.06,0,6.72-13.85.07A2.27,2.27,0,0,0,45.23,147.2Z"/><path class="cls-1" d="M76.26,139.68a9.28,9.28,0,0,1,6.53,2.59,8.92,8.92,0,0,1,2,2.81,8.65,8.65,0,0,1,0,7,9.29,9.29,0,0,1-4.86,4.8,9.4,9.4,0,0,1-3.6.72l-6.95,0,0,11.17-6.9,0-.14-29.07,6.91,0Zm.06,11.17A2.26,2.26,0,0,0,78,150.2a2.14,2.14,0,0,0,.66-1.6,2.07,2.07,0,0,0-.67-1.55,2.29,2.29,0,0,0-1.65-.64l-7,0,0,4.45Z"/><path class="cls-1" d="M94.1,139.6l.14,29.07-6.91,0-.13-29.07Z"/><path class="cls-1" d="M119,168.55l-6.9,0,0-8.93a2.17,2.17,0,0,0-.67-1.59,2.3,2.3,0,0,0-1.66-.64l-6.94,0,0,11.17-6.91,0-.13-29.07,6.9,0,0,11.17h2.32a2.33,2.33,0,0,0,1.65-.65,2.13,2.13,0,0,0,.65-1.61l0-8.92,6.9,0,0,8.93a8.78,8.78,0,0,1-.55,3.16,9,9,0,0,1,3.77,3.2,8.44,8.44,0,0,1,1.46,4.83Z"/><g id="layer101"><path class="cls-2" d="M55.59,130.37a71.42,71.42,0,0,1-23.4-8.43A70.38,70.38,0,0,1,9.9,100.3C5.42,93.26,1.75,83,.36,73.67c-.63-4.23-.38-15,.38-19.4l.51-2.75,4-.06c4.41-.07,7.85,0,8,.18a21.69,21.69,0,0,1-.55,2.92c-.94,3.84-1.28,13.78-.61,18.31a54.32,54.32,0,0,0,38.61,44.41,47.64,47.64,0,0,0,15.27,2c7.62,0,16.94-2,16.41-3.39-.13-.31-5-7.65-10.8-16.3L61,83.93,48.92,84,36.84,84l-6.7-7.86c-3.68-4.34-6.62-7.94-6.53-8.07s11-.23,24.14-.29c25.72-.12,27.85-.26,30.06-2.32,1.91-1.8,2.73-4.16,2.71-8a22.25,22.25,0,0,0-.46-5,7.69,7.69,0,0,0-4.94-4.77q-1.84-.45-37-.39c-19.31,0-35.26-.1-35.4-.23-.39-.39,1.72-6.11,3.7-10.22A65,65,0,0,1,44.74,3.24C52.84.54,55.93.05,65.21,0s12.08.38,20.5,3c16.5,5.2,30.6,17.38,38.74,33.51,5.63,11.05,7.88,26.64,5.85,39.64a69.26,69.26,0,0,1-12.63,29c-2.26,2.89-7.07,8.1-7.55,8.1s-6.71-8.38-6.71-8.94a20.85,20.85,0,0,1,2.64-3.46,53.59,53.59,0,0,0,10.79-51.66,51.46,51.46,0,0,0-13.58-22A51.46,51.46,0,0,0,73.12,12.17,53.85,53.85,0,0,0,30.5,24.45c-2.69,2.27-5.86,5.56-5.9,6.13,0,.17,12,.29,26.72.3,25.68.06,26.81.1,30,.95,4.84,1.33,8.51,3.32,11.27,6.14,4.73,4.73,6.63,10.12,6.67,19,0,8.41-1.59,13.61-6,18.86a21.74,21.74,0,0,1-9.9,6.32c-1,.31-1.88.71-1.87.88s8.91,13,22.2,31.5l1.89,2.65-1,.87c-5.42,5-18.91,10.73-28.66,12.21A85.78,85.78,0,0,1,55.59,130.37Z"/></g></g></g></svg>